<?xml version="1.0" standalone="no"?>
<!DOCTYPE svg PUBLIC "-//W3C//DTD SVG 20010904//EN"
 "http://www.w3.org/TR/2001/REC-SVG-20010904/DTD/svg10.dtd">
<svg version="1.0" xmlns="http://www.w3.org/2000/svg"
 width="346.000000pt" height="480.000000pt" viewBox="0 0 346.000000 480.000000"
 preserveAspectRatio="xMidYMid meet">

<g transform="translate(0.000000,480.000000) scale(0.100000,-0.100000)"
fill="#555" stroke="none">
<path d="M1075 4013 c-220 -129 -402 -237 -404 -239 -5 -5 31 -73 45 -85 7 -6
148 72 410 227 219 130 400 237 402 238 2 3 -48 96 -51 96 -1 0 -182 -107
-402 -237z"/>
<path d="M1965 4194 c-15 -25 -23 -49 -19 -54 14 -11 796 -471 798 -468 0 2
11 23 24 47 12 25 19 48 15 52 -5 4 -170 102 -368 219 -198 117 -374 221 -391
231 l-32 19 -27 -46z"/>
<path d="M1670 3985 l0 -55 55 0 55 0 0 55 0 55 -55 0 -55 0 0 -55z"/>
<path d="M1670 3755 l0 -55 55 0 55 0 0 55 0 55 -55 0 -55 0 0 -55z"/>
<path d="M1670 3528 l0 -53 55 0 55 0 0 53 0 52 -55 0 -55 0 0 -52z"/>
<path d="M733 3420 c-13 -21 -23 -43 -23 -48 0 -6 39 -32 88 -60 48 -27 200
-115 338 -194 l251 -145 27 48 26 48 -67 39 c-380 219 -611 352 -614 352 -2 0
-14 -18 -26 -40z"/>
<path d="M2354 3259 c-181 -104 -332 -194 -337 -198 -4 -4 4 -28 18 -53 l26
-46 337 195 c185 107 339 197 341 199 5 5 -30 72 -45 84 -6 6 -133 -62 -340
-181z"/>
<path d="M1723 3343 l-53 -4 0 -50 0 -49 55 0 55 0 0 55 c0 30 -1 54 -2 53 -2
-1 -27 -3 -55 -5z"/>
<path d="M400 2835 l0 -495 53 0 52 0 -3 495 -2 495 -50 0 -50 0 0 -495z"/>
<path d="M2950 2835 l0 -495 50 0 50 0 0 495 0 495 -50 0 -50 0 0 -495z"/>
<path d="M1348 2674 c-21 -13 -38 -27 -38 -30 0 -13 44 -84 52 -84 5 0 26 10
48 22 l39 23 -27 47 c-15 27 -29 48 -32 47 -3 0 -22 -11 -42 -25z"/>
<path d="M2018 2652 l-27 -48 44 -24 c24 -13 46 -22 48 -20 10 13 47 78 47 84
0 5 -75 56 -82 56 -2 0 -15 -22 -30 -48z"/>
<path d="M1143 2554 l-43 -25 27 -42 c15 -23 28 -43 29 -45 1 -2 15 3 31 12
60 32 59 30 32 80 -13 25 -26 46 -29 46 -3 0 -24 -12 -47 -26z"/>
<path d="M2220 2535 c-13 -24 -22 -46 -20 -48 17 -13 82 -49 84 -46 14 19 46
78 46 86 0 8 -69 53 -82 53 -2 0 -14 -20 -28 -45z"/>
<path d="M948 2441 l-47 -27 26 -45 c14 -24 27 -45 29 -47 1 -2 22 9 47 25
l46 28 -27 47 -27 46 -47 -27z"/>
<path d="M2418 2422 l-27 -48 47 -26 47 -26 26 47 27 47 -47 26 -47 27 -26
-47z"/>
<path d="M1670 2045 l0 -395 55 0 55 0 0 395 0 395 -55 0 -55 0 0 -395z"/>
<path d="M747 2324 l-37 -24 20 -40 c11 -21 24 -41 29 -44 7 -5 54 16 89 40 4
3 -52 94 -58 93 -3 0 -22 -11 -43 -25z"/>
<path d="M2618 2305 l-27 -44 41 -25 c23 -14 46 -23 50 -20 5 3 18 24 29 46
17 33 18 42 7 50 -17 11 -66 38 -70 38 -2 0 -15 -20 -30 -45z"/>
<path d="M686 1944 c-16 -25 -25 -49 -20 -53 12 -10 729 -433 772 -455 19 -10
35 -16 35 -14 1 2 12 23 25 46 13 24 22 45 20 46 -2 2 -169 101 -373 221 -203
120 -384 226 -400 236 l-30 18 -29 -45z"/>
<path d="M2330 1749 c-223 -132 -404 -243 -403 -247 1 -4 12 -26 25 -49 l24
-42 219 131 c121 71 306 180 410 241 105 60 192 111 193 113 6 4 -49 94 -56
94 -4 -1 -189 -109 -412 -241z"/>
</g>
<text x="173" y="430" font-family="Arial" font-weight="bold" font-size="70" text-anchor="middle" fill="#555">
BSAARC
</text>
</svg>
