<?xml version="1.0" encoding="utf-8"?>
<!-- Uploaded to: SVG Repo, www.svgrepo.com, Generator: SVG Repo Mixer Tools -->
<svg width="800px" height="800px" viewBox="0 0 1024 1024" fill="#000000" class="icon"  version="1.1" xmlns="http://www.w3.org/2000/svg"><path d="M999.97 1023.968H24.03c-4.422 0-8-3.578-8-8V855.98c0-68.668 35.56-94.964 101.198-119.494 35.936-13.404 68.09-26.31 95.588-38.342 4.046-1.766 8.766 0.078 10.532 4.124s-0.078 8.75-4.124 10.532c-27.748 12.156-60.184 25.154-96.4 38.686-61.512 22.966-90.792 44.464-90.792 104.494v151.99h959.942V855.98c0-60.03-29.28-81.528-90.792-104.494-37.076-13.89-68.606-26.544-96.384-38.702a8 8 0 0 1-4.124-10.532 8.022 8.022 0 0 1 10.532-4.124c27.514 12.032 58.778 24.578 95.588 38.358 65.622 24.53 101.182 50.826 101.182 119.494v159.988a8.004 8.004 0 0 1-8.006 8z" fill="" /><path d="M512 703.988c-108.494 0-287.982-168.24-287.982-359.978 0-4.42 3.578-8 8-8a7.994 7.994 0 0 1 7.998 8c0 177.374 169.678 343.978 271.984 343.978 47.372 0 110.212-35.84 164.022-93.54 59.386-63.7 98.134-143.64 106.276-219.316 0.468-4.406 4.484-7.476 8.812-7.092a8 8 0 0 1 7.092 8.812c-18.14 168.49-176.614 327.136-286.202 327.136zM791.984 352.01c-0.094 0-0.188-0.008-0.296-0.008a8.006 8.006 0 0 1-7.688-7.446c-0.062-0.876-6.672-88.01-59.808-121.79-20.532-13.054-41.28-19.404-63.434-19.404-43.576 0-88.528 25.06-136.102 51.598-58.81 32.788-125.448 69.942-205.894 69.942-35.544 0-70.45-7.016-106.698-21.46a8 8 0 0 1-5.032-7.898C207.206 292.584 227.768 0.032 512 0.032c97.228 0 171.756 29.1 221.534 86.494 87.698 101.112 67.278 252.236 66.372 258.618a8 8 0 0 1-7.922 6.866zM223.534 290.74c32.342 12.218 63.558 18.162 95.228 18.162 76.278 0 140.992-36.084 198.098-67.916 49.45-27.578 96.166-53.622 143.898-53.622 25.28 0 48.84 7.164 72.026 21.906 27.092 17.234 43.374 45.482 53.092 71.636-2.422-52.308-15.454-127.484-64.48-183.964C674.788 43.254 604.338 16.03 512 16.03c-112.76 0-195.598 46.88-246.204 139.342-31.81 58.138-40.31 117.088-42.262 135.368z" fill="" /><path d="M728.486 224.018a7.894 7.894 0 0 1-3.998-1.078 7.99 7.99 0 0 1-2.922-10.93l37.012-63.996c2.218-3.82 7.156-5.108 10.922-2.914a7.988 7.988 0 0 1 2.922 10.928l-37.014 63.996a7.994 7.994 0 0 1-6.922 3.994zM551.998 799.982h-79.996a8.016 8.016 0 0 1-7.156-4.422l-15.998-31.998a8.004 8.004 0 0 1 3.578-10.734 8.014 8.014 0 0 1 10.732 3.578l13.782 27.578h70.122l13.78-27.578c1.984-3.954 6.796-5.514 10.734-3.578a8.004 8.004 0 0 1 3.578 10.734l-16 31.998a8.016 8.016 0 0 1-7.156 4.422z" fill="" /><path d="M456.004 879.978c-0.984 0-2-0.188-2.968-0.562a8.01 8.01 0 0 1-4.454-10.406l31.998-79.994a8.004 8.004 0 0 1 10.39-4.468 8.008 8.008 0 0 1 4.452 10.404l-31.998 79.996a7.996 7.996 0 0 1-7.42 5.03zM567.996 879.978a7.998 7.998 0 0 1-7.422-5.032l-31.996-79.996a8.008 8.008 0 0 1 4.454-10.404c4.076-1.64 8.748 0.36 10.388 4.468l31.998 79.994a8.01 8.01 0 0 1-4.454 10.406 8.196 8.196 0 0 1-2.968 0.564zM630.804 991.97c-1.64 0-3.282-0.5-4.688-1.532-3.576-2.594-4.388-7.592-1.796-11.154l78.778-108.682-14.704-44.092a8.02 8.02 0 0 1 1.078-7.188l76.058-106.46-75.2-75.214a8 8 0 1 1 11.312-11.312l79.996 79.996a8.018 8.018 0 0 1 0.86 10.312l-77.636 108.68 14.718 44.124a8.036 8.036 0 0 1-1.11 7.218l-81.184 111.992a8.024 8.024 0 0 1-6.482 3.312z" fill="" /><path d="M583.996 991.97a7.996 7.996 0 0 1-7.626-10.42l111.992-351.98c1.328-4.204 5.876-6.578 10.046-5.204a7.998 7.998 0 0 1 5.204 10.046L591.62 986.39a8 8 0 0 1-7.624 5.58zM631.992 767.984c-0.984 0-2-0.188-2.968-0.562l-119.992-47.996a8.01 8.01 0 0 1-4.454-10.406c1.64-4.11 6.312-6.124 10.39-4.468l119.992 47.996a8.01 8.01 0 0 1 4.454 10.406 8 8 0 0 1-7.422 5.03zM393.196 991.97a8.034 8.034 0 0 1-6.484-3.312l-81.184-111.992a8.038 8.038 0 0 1-1.11-7.218l14.718-44.124-77.636-108.68a8.016 8.016 0 0 1 0.86-10.312l79.996-79.996a8 8 0 0 1 11.31 11.312l-75.198 75.214 76.056 106.46a8.02 8.02 0 0 1 1.078 7.188l-14.702 44.092 78.776 108.682c2.594 3.562 1.782 8.56-1.796 11.154a7.876 7.876 0 0 1-4.684 1.532z" fill="" /><path d="M440.004 991.97a8 8 0 0 1-7.624-5.578l-111.992-351.978a7.992 7.992 0 0 1 5.204-10.046c4.188-1.376 8.716 1 10.044 5.204l111.994 351.98a7.992 7.992 0 0 1-7.626 10.418zM392.008 767.984a8.01 8.01 0 0 1-2.968-15.438l119.992-47.996c4.094-1.656 8.75 0.36 10.39 4.468a8.01 8.01 0 0 1-4.454 10.406l-119.992 47.996a8.24 8.24 0 0 1-2.968 0.564z" fill="" /><path d="M512 991.97c-4.422 0-8-3.578-8-7.998V839.98c0-4.422 3.578-8 8-8s8 3.578 8 8v143.992a7.994 7.994 0 0 1-8 7.998z" fill="" /></svg>