<?xml version="1.0" encoding="utf-8"?>
<!-- Uploaded to: SVG Repo, www.svgrepo.com, Generator: SVG Repo Mixer Tools -->
<svg width="800px" height="800px" viewBox="0 0 1024 1024" fill="#000000" class="icon"  version="1.1" xmlns="http://www.w3.org/2000/svg"><path d="M280.098 559.964C125.772 559.964 0.216 434.408 0.216 280.082S125.772 0.2 280.098 0.2c154.324 0 279.88 125.556 279.88 279.882s-125.556 279.882-279.88 279.882z m0-543.77C134.588 16.194 16.208 134.582 16.208 280.082c0 145.502 118.38 263.89 263.89 263.89 145.508 0 263.888-118.388 263.888-263.89 0-145.5-118.38-263.888-263.888-263.888zM296.09 1023.77a7.99 7.99 0 0 1-7.996-7.996V583.956c0-4.42 3.576-7.998 7.996-7.998s7.996 3.578 7.996 7.998v431.818a7.99 7.99 0 0 1-7.996 7.996zM264.104 1023.77a7.99 7.99 0 0 1-7.996-7.996V583.956c0-4.42 3.576-7.998 7.996-7.998s7.996 3.578 7.996 7.998v431.818a7.99 7.99 0 0 1-7.996 7.996z" fill="" /><path d="M296.09 1023.77h-31.986c-4.42 0-7.996-3.576-7.996-7.996s3.576-7.996 7.996-7.996h31.986c4.42 0 7.996 3.576 7.996 7.996s-3.576 7.996-7.996 7.996zM263.08 264.058a8 8 0 0 1-7.042-4.186c-38.524-71.204-11.824-163.072 7.52-211.504a7.964 7.964 0 0 1 10.394-4.452 7.98 7.98 0 0 1 4.458 10.386c-18.304 45.824-43.732 132.49-8.3 197.948a7.994 7.994 0 0 1-3.234 10.84 7.948 7.948 0 0 1-3.796 0.968zM289.234 516.858a8.28 8.28 0 0 1-2.968-0.562 8.002 8.002 0 0 1-4.458-10.402c18.296-45.856 43.716-132.57 8.308-197.98-2.1-3.888-0.654-8.746 3.234-10.838s8.722-0.656 10.838 3.218c38.5 71.158 11.808 163.072-7.528 211.536a8.004 8.004 0 0 1-7.426 5.028zM251.062 283.144c-0.75 0-1.524-0.11-2.282-0.328-77.584-23.1-123.666-106.956-144.228-154.888a8.014 8.014 0 0 1 4.194-10.512 7.994 7.994 0 0 1 10.504 4.202c19.46 45.356 62.756 124.62 134.092 145.862a7.996 7.996 0 0 1-2.28 15.664zM448.322 443.388a8.006 8.006 0 0 1-7.348-4.842c-19.508-45.372-62.88-124.666-134.124-145.86a7.996 7.996 0 0 1-5.38-9.95c1.258-4.216 5.702-6.59 9.942-5.388 77.49 23.068 123.642 106.94 144.26 154.888a7.984 7.984 0 0 1-4.194 10.496 7.762 7.762 0 0 1-3.156 0.656zM175.04 323.814c-48.768 0-96.272-15.042-126.674-27.192a7.98 7.98 0 0 1-4.458-10.386 7.976 7.976 0 0 1 10.394-4.452c45.84 18.304 132.516 43.748 197.958 8.324a7.982 7.982 0 0 1 10.838 3.216 7.992 7.992 0 0 1-3.232 10.84c-26.498 14.34-55.894 19.65-84.826 19.65zM508.86 278.958c-0.99 0-1.99-0.188-2.958-0.562-45.864-18.29-132.578-43.684-197.994-8.31a7.994 7.994 0 1 1-7.608-14.056c71.142-38.468 163.056-11.806 211.522 7.498a7.998 7.998 0 0 1-2.962 15.43zM124.772 456.29a7.984 7.984 0 0 1-7.348-4.842 8.008 8.008 0 0 1 4.194-10.51c45.364-19.46 124.626-62.754 145.868-134.084 1.258-4.218 5.724-6.59 9.942-5.388a7.996 7.996 0 0 1 5.38 9.95c-23.1 77.578-106.956 123.666-154.88 144.236a8.128 8.128 0 0 1-3.156 0.638zM285.016 259.06c-0.748 0-1.522-0.11-2.28-0.328a7.998 7.998 0 0 1-5.38-9.95c23.076-77.5 106.94-123.652 154.88-144.252 4.022-1.782 8.754 0.124 10.504 4.186a7.984 7.984 0 0 1-4.196 10.496c-45.364 19.506-124.642 62.878-145.868 134.13a7.996 7.996 0 0 1-7.66 5.718zM575.972 943.836c-70.548 0-127.948-57.382-127.948-127.932 0-4.42 3.578-7.996 7.998-7.996s7.996 3.576 7.996 7.996c0 61.724 50.22 111.938 111.954 111.938 4.42 0 7.996 3.576 7.996 7.996s-3.576 7.998-7.996 7.998z" fill="" /><path d="M575.988 943.836c-4.42 0-7.996-3.578-7.996-7.998s3.576-7.996 7.996-7.996c61.722 0 111.938-50.212 111.938-111.938 0-4.42 3.576-7.996 7.996-7.996s7.996 3.576 7.996 7.996c0 70.55-57.398 127.932-127.93 127.932zM575.972 1023.8c-114.646 0-207.912-93.258-207.912-207.88 0-4.42 3.576-7.998 7.996-7.998s7.996 3.578 7.996 7.998c0 105.814 86.098 191.888 191.92 191.888 4.42 0 7.996 3.576 7.996 7.996s-3.576 7.996-7.996 7.996z" fill="" /><path d="M575.988 1023.8c-4.42 0-7.996-3.576-7.996-7.996s3.576-7.996 7.996-7.996c105.814 0 191.902-86.074 191.902-191.888 0-4.42 3.578-7.998 7.998-7.998s7.996 3.578 7.996 7.998c0 114.622-93.272 207.88-207.896 207.88zM695.922 823.9a7.99 7.99 0 0 1-7.996-7.996V56.176c0-4.42 3.576-7.996 7.996-7.996s7.996 3.576 7.996 7.996v759.728a7.99 7.99 0 0 1-7.996 7.996z" fill="" /><path d="M775.888 823.916a7.992 7.992 0 0 1-7.998-7.996V56.176c0-4.42 3.578-7.996 7.998-7.996s7.996 3.576 7.996 7.996V815.92a7.99 7.99 0 0 1-7.996 7.996zM695.922 64.172a7.992 7.992 0 0 1-7.996-7.998c0-30.862 21.522-55.976 47.978-55.976a7.994 7.994 0 0 1 7.998 7.998 7.992 7.992 0 0 1-7.998 7.996c-17.648 0-31.986 17.93-31.986 39.982a7.992 7.992 0 0 1-7.996 7.998z" fill="" /><path d="M775.888 64.172a7.994 7.994 0 0 1-7.998-7.998c0-22.052-14.352-39.982-31.986-39.982a7.99 7.99 0 0 1-7.996-7.996 7.992 7.992 0 0 1 7.996-7.998c26.458 0 47.98 25.116 47.98 55.976a7.992 7.992 0 0 1-7.996 7.998zM376.354 799.864a7.99 7.99 0 0 1-7.996-7.996c0-30.862 21.522-55.976 47.978-55.976a7.992 7.992 0 0 1 7.998 7.996 7.994 7.994 0 0 1-7.998 7.998c-17.64 0-31.986 17.93-31.986 39.982a7.99 7.99 0 0 1-7.996 7.996z" fill="" /><path d="M456.32 799.864a7.992 7.992 0 0 1-7.998-7.996c0-22.052-14.346-39.982-31.986-39.982a7.992 7.992 0 0 1-7.996-7.998 7.99 7.99 0 0 1 7.996-7.996c26.458 0 47.98 25.116 47.98 55.976a7.99 7.99 0 0 1-7.996 7.996zM376.056 823.916a7.99 7.99 0 0 1-7.996-7.996v-24.052c0-4.42 3.576-7.996 7.996-7.996s7.996 3.576 7.996 7.996v24.052a7.99 7.99 0 0 1-7.996 7.996z" fill="" /><path d="M456.024 823.916a7.992 7.992 0 0 1-7.998-7.996v-24.052c0-4.42 3.578-7.996 7.998-7.996s7.996 3.576 7.996 7.996v24.052a7.99 7.99 0 0 1-7.996 7.996zM775.888 272.086a7.98 7.98 0 0 1-5.654-2.342l-79.966-79.966c-3.124-3.124-3.124-8.184 0-11.308s8.186-3.124 11.308 0l79.966 79.966a7.994 7.994 0 0 1-5.654 13.65zM775.888 415.994a7.98 7.98 0 0 1-5.654-2.342l-79.966-79.966a7.994 7.994 0 0 1 0-11.308 7.994 7.994 0 0 1 11.308 0l79.966 79.966a7.994 7.994 0 0 1-5.654 13.65zM775.888 559.918a7.972 7.972 0 0 1-5.654-2.344l-79.966-79.964a7.994 7.994 0 0 1 0-11.308 7.994 7.994 0 0 1 11.308 0l79.966 79.966a7.992 7.992 0 0 1 0 11.306 7.972 7.972 0 0 1-5.654 2.344zM775.888 703.842a7.98 7.98 0 0 1-5.654-2.342l-79.966-79.966a7.996 7.996 0 1 1 11.308-11.308l79.966 79.966a7.994 7.994 0 0 1-5.654 13.65z" fill="" /><path d="M774.216 846.078a7.98 7.98 0 0 1-5.654-2.342l-78.294-78.294a7.994 7.994 0 0 1 0-11.308 7.994 7.994 0 0 1 11.308 0l78.294 78.294a7.994 7.994 0 0 1-5.654 13.65z" fill="" /><path d="M575.972 1023.8a7.99 7.99 0 0 1-7.996-7.996v-79.966c0-4.42 3.576-7.996 7.996-7.996s7.996 3.576 7.996 7.996v79.966a7.99 7.99 0 0 1-7.996 7.996z" fill="" /><path d="M717.318 965.264a7.976 7.976 0 0 1-5.654-2.344l-56.552-56.552a7.994 7.994 0 0 1 0-11.308 7.992 7.992 0 0 1 11.306 0l56.554 56.554a7.992 7.992 0 0 1 0 11.306 7.968 7.968 0 0 1-5.654 2.344z" fill="" /><path d="M434.61 965.264a7.968 7.968 0 0 1-5.652-2.344 7.992 7.992 0 0 1 0-11.306l56.522-56.54a7.994 7.994 0 0 1 11.308 0 7.994 7.994 0 0 1 0 11.308l-56.524 56.538a7.972 7.972 0 0 1-5.654 2.344z" fill="" /><path d="M975.804 320.066h-79.966a7.992 7.992 0 0 1-7.996-7.998V120.15a7.992 7.992 0 0 1 7.996-7.998h79.966a7.992 7.992 0 0 1 7.996 7.998v191.918a7.992 7.992 0 0 1-7.996 7.998z m-71.97-15.994h63.974V128.146h-63.974v175.926zM911.832 96.16a8.014 8.014 0 0 1-7.592-5.466l-15.994-47.98a8.02 8.02 0 0 1 5.062-10.12 7.976 7.976 0 0 1 10.104 5.06l15.994 47.98a8 8 0 0 1-5.044 10.122c-0.844 0.28-1.704 0.404-2.53 0.404z" fill="" /><path d="M975.804 48.18h-79.966c-4.42 0-7.996-3.576-7.996-7.996s3.576-7.998 7.996-7.998h79.966c4.42 0 7.996 3.578 7.996 7.998s-3.576 7.996-7.996 7.996z" fill="" /><path d="M959.81 96.114c-0.842 0-1.702-0.124-2.53-0.406a8.004 8.004 0 0 1-5.06-10.122l15.994-47.934a7.994 7.994 0 0 1 15.164 5.06l-15.992 47.934a7.974 7.974 0 0 1-7.576 5.468zM975.804 400.032a8.01 8.01 0 0 1-7.59-5.466l-15.994-47.98a8.02 8.02 0 0 1 5.06-10.122 7.984 7.984 0 0 1 10.106 5.06l15.992 47.98a8 8 0 0 1-5.044 10.122 7.972 7.972 0 0 1-2.53 0.406z" fill="" /><path d="M975.804 400.032h-79.966c-4.42 0-7.996-3.576-7.996-7.996s3.576-7.996 7.996-7.996h79.966c4.42 0 7.996 3.576 7.996 7.996s-3.576 7.996-7.996 7.996z" fill="" /><path d="M895.838 400.032c-0.844 0-1.704-0.124-2.53-0.406a8.004 8.004 0 0 1-5.062-10.122l15.994-47.932a7.994 7.994 0 1 1 15.166 5.062l-15.994 47.932a7.97 7.97 0 0 1-7.574 5.466z" fill="" /><path d="M943.818 176.126h-15.994c-4.42 0-7.996-3.578-7.996-7.998s3.576-7.996 7.996-7.996h15.994c4.42 0 7.996 3.576 7.996 7.996s-3.576 7.998-7.996 7.998z" fill="" /><path d="M943.818 224.106h-15.994c-4.42 0-7.996-3.576-7.996-7.996s3.576-7.996 7.996-7.996h15.994c4.42 0 7.996 3.576 7.996 7.996s-3.576 7.996-7.996 7.996z" fill="" /><path d="M943.818 272.086h-15.994a7.992 7.992 0 0 1-7.996-7.998 7.992 7.992 0 0 1 7.996-7.998h15.994a7.992 7.992 0 0 1 7.996 7.998 7.992 7.992 0 0 1-7.996 7.998z" fill="" /><path d="M80.19 655.924a7.98 7.98 0 0 1-6.404-3.202l-23.99-31.986a7.994 7.994 0 0 1 1.602-11.2c3.514-2.654 8.536-1.92 11.19 1.61l23.99 31.986a7.992 7.992 0 0 1-6.388 12.792z" fill="" /><path d="M152.15 623.938H56.192c-4.42 0-7.998-3.576-7.998-7.996s3.578-7.996 7.998-7.996h95.958c4.42 0 7.996 3.576 7.996 7.996s-3.576 7.996-7.996 7.996z" fill="" /><path d="M128.152 655.876a7.872 7.872 0 0 1-4.794-1.608 7.986 7.986 0 0 1-1.592-11.184l23.988-31.94c2.656-3.53 7.678-4.28 11.2-1.594a7.988 7.988 0 0 1 1.594 11.184l-23.99 31.94a7.992 7.992 0 0 1-6.406 3.202zM152.158 1023.77a7.988 7.988 0 0 1-6.404-3.202l-23.988-31.986a7.994 7.994 0 0 1 1.6-11.2c3.522-2.654 8.542-1.922 11.192 1.61l23.99 31.986a7.994 7.994 0 0 1-6.39 12.792z" fill="" /><path d="M152.15 1023.77H56.192c-4.42 0-7.998-3.576-7.998-7.996s3.578-7.996 7.998-7.996h95.958c4.42 0 7.996 3.576 7.996 7.996s-3.576 7.996-7.996 7.996z" fill="" /><path d="M56.184 1023.77c-1.672 0-3.36-0.516-4.794-1.61a7.984 7.984 0 0 1-1.594-11.182l23.99-31.94c2.646-3.532 7.668-4.28 11.198-1.594a7.984 7.984 0 0 1 1.594 11.184l-23.99 31.94a8 8 0 0 1-6.404 3.202z" fill="" /><path d="M104.17 959.796c-43.714 0-71.968-56.492-71.968-143.94s28.254-143.94 71.968-143.94c43.716 0 71.97 56.492 71.97 143.94s-28.254 143.94-71.97 143.94z m0-271.886c-26.958 0-55.976 40.046-55.976 127.948s29.02 127.948 55.976 127.948c26.958 0 55.976-40.046 55.976-127.948s-29.018-127.948-55.976-127.948z" fill="" /><path d="M104.17 847.89c-17.64 0-31.986-14.354-31.986-31.986s14.346-31.986 31.986-31.986c17.642 0 31.986 14.354 31.986 31.986s-14.344 31.986-31.986 31.986z m0-47.98c-8.816 0-15.992 7.17-15.992 15.994s7.176 15.994 15.992 15.994 15.994-7.17 15.994-15.994-7.178-15.994-15.994-15.994z" fill="" /><path d="M575.972 695.908a7.992 7.992 0 0 1-7.996-7.998l0.016-175.926a7.99 7.99 0 0 1 7.996-7.996 7.99 7.99 0 0 1 7.996 7.996l-0.016 175.926a8 8 0 0 1-7.996 7.998z" fill="" /><path d="M575.988 799.864c-35.284 0-63.972-28.692-63.972-63.972s28.69-63.972 63.972-63.972c35.266 0 63.972 28.692 63.972 63.972s-28.706 63.972-63.972 63.972z m0-111.954c-26.458 0-47.98 21.524-47.98 47.98s21.524 47.98 47.98 47.98 47.98-21.524 47.98-47.98-21.522-47.98-47.98-47.98z" fill="" /><path d="M639.96 743.886h-127.946c-4.42 0-7.998-3.576-7.998-7.996s3.578-7.996 7.998-7.996h127.946c4.42 0 7.996 3.576 7.996 7.996s-3.576 7.996-7.996 7.996z" fill="" /><path d="M1015.788 959.796h-159.932a7.992 7.992 0 0 1-7.998-7.996V679.914c0-3.264 1.984-6.214 5.03-7.418l159.934-63.972a7.938 7.938 0 0 1 7.45 0.794 8.016 8.016 0 0 1 3.516 6.624V951.8a7.996 7.996 0 0 1-8 7.996z m-151.936-15.992h143.94V627.75l-143.94 57.584v258.47z" fill="" /><path d="M855.84 1023.8a7.846 7.846 0 0 1-3.562-0.844 7.986 7.986 0 0 1-3.576-10.728l15.994-32.018a7.98 7.98 0 0 1 10.728-3.578 8 8 0 0 1 3.576 10.73l-15.992 32.018a8.022 8.022 0 0 1-7.168 4.42z" fill="" /><path d="M1015.788 1023.8h-159.932c-4.422 0-7.998-3.576-7.998-7.996s3.576-7.996 7.998-7.996h159.932c4.42 0 7.998 3.576 7.998 7.996s-3.578 7.996-7.998 7.996z" fill="" /><path d="M1015.788 1023.8a7.98 7.98 0 0 1-7.152-4.42l-15.994-32.018a7.986 7.986 0 0 1 3.576-10.73c3.952-1.998 8.764-0.36 10.73 3.578l15.994 32.018c1.966 3.952 0.376 8.762-3.578 10.728a7.93 7.93 0 0 1-3.576 0.844z" fill="" /><path d="M871.848 639.932a7.992 7.992 0 0 1-7.996-7.998v-143.938c0-4.42 3.576-7.998 7.996-7.998s7.996 3.578 7.996 7.998v143.938a7.992 7.992 0 0 1-7.996 7.998z" fill="" /><path d="M999.792 591.952a7.992 7.992 0 0 1-7.996-7.996v-95.96a7.994 7.994 0 0 1 7.996-7.998 7.994 7.994 0 0 1 7.998 7.998v95.96a7.99 7.99 0 0 1-7.998 7.996z" fill="" /><path d="M999.792 495.992h-127.946c-4.42 0-7.996-3.578-7.996-7.998s3.576-7.998 7.996-7.998h127.946c4.422 0 7.998 3.578 7.998 7.998s-3.576 7.998-7.998 7.998z" fill="" /><path d="M967.808 543.926h-63.974c-4.42 0-7.996-3.578-7.996-7.998s3.576-7.996 7.996-7.996h63.974c4.418 0 7.996 3.576 7.996 7.996s-3.578 7.998-7.996 7.998z" fill="" /><path d="M967.808 591.952h-63.974c-4.42 0-7.996-3.576-7.996-7.996s3.576-7.998 7.996-7.998h63.974c4.418 0 7.996 3.578 7.996 7.998s-3.578 7.996-7.996 7.996z" fill="" /><path d="M903.834 895.824a7.992 7.992 0 0 1-7.996-7.996v-191.92c0-4.42 3.576-7.998 7.996-7.998s7.998 3.578 7.998 7.998v191.92a7.994 7.994 0 0 1-7.998 7.996z" fill="" /><path d="M967.808 895.824h-63.974a7.992 7.992 0 0 1-7.996-7.996 7.992 7.992 0 0 1 7.996-7.998h63.974a7.992 7.992 0 0 1 7.996 7.998 7.994 7.994 0 0 1-7.996 7.996z" fill="" /><path d="M967.808 895.824a7.992 7.992 0 0 1-7.998-7.996V663.922a7.992 7.992 0 0 1 7.998-7.998 7.992 7.992 0 0 1 7.996 7.998v223.906a7.994 7.994 0 0 1-7.996 7.996z" fill="" /><path d="M935.82 863.836a7.99 7.99 0 0 1-7.996-7.996v-175.926a7.99 7.99 0 0 1 7.996-7.996 7.992 7.992 0 0 1 7.998 7.996v175.926a7.992 7.992 0 0 1-7.998 7.996z" fill="" /><path d="M887.842 1023.786a7.992 7.992 0 0 1-7.998-7.996v-8.012c0-4.422 3.578-7.998 7.998-7.998s7.996 3.576 7.996 7.998v8.012a7.992 7.992 0 0 1-7.996 7.996z" fill="" /><path d="M919.828 1023.786a7.99 7.99 0 0 1-7.996-7.996v-8.012c0-4.422 3.576-7.998 7.996-7.998s7.996 3.576 7.996 7.998v8.012a7.992 7.992 0 0 1-7.996 7.996z" fill="" /><path d="M951.814 1023.786a7.99 7.99 0 0 1-7.996-7.996v-8.012c0-4.422 3.576-7.998 7.996-7.998s7.996 3.576 7.996 7.998v8.012a7.992 7.992 0 0 1-7.996 7.996z" fill="" /><path d="M983.8 1023.786a7.99 7.99 0 0 1-7.996-7.996v-8.012c0-4.422 3.576-7.998 7.996-7.998s7.996 3.576 7.996 7.998v8.012a7.992 7.992 0 0 1-7.996 7.996z" fill="" /></svg>